<svg xmlns="http://www.w3.org/2000/svg" version="1.1" xmlns:xlink="http://www.w3.org/1999/xlink" xmlns:svgjs="http://svgjs.com/svgjs" width="100%" height="100%" viewBox="0 0 1000 600"><rect width="1000" height="600" x="0" y="0" fill="#c0c0c0"/><g><circle r="166.66666666666666" cx="424.5132853190104" cy="446.7355916822754" fill="#837e7c" transform="matrix(0.48478420555164864,0,0,0.48478420555164864,0,83.42964490935996)"/><path d="M354.246014360418 485.92897262677565L354.246014360418 485.92897262677565Q354.246014360418 493.3392389768612 351.43821812620587 499.8521683861161Q348.63042189199376 506.36509779537096 343.7674345997501 511.25703144054467Q338.8755009545764 516.1489650857184 332.36257154532154 518.9567613199304Q325.8496421360667 521.7356112012126 318.4104294330511 521.7356112012126L318.4104294330511 521.7356112012126L308.0476350841033 521.7356112012126Q300.60842238108773 521.7356112012126 294.0376002659728 518.9567613199304Q287.49572450378787 516.1489650857184 282.6037908586142 511.25703144054467Q277.71185721344057 506.36509779537096 274.90406097922846 499.8521683861161Q272.12521109794636 493.3392389768612 272.12521109794636 485.92897262677565L272.12521109794636 485.92897262677565L272.12521109794636 407.5711952452068Q272.12521109794636 400.1319825421912 274.90406097922846 393.6190531329363Q277.71185721344057 387.10612372368143 282.6037908586142 382.2141900785078Q287.49572450378787 377.35120278626414 294.0376002659728 374.54340655205203Q300.60842238108773 371.7356103178399 308.0476350841033 371.7356103178399L308.0476350841033 371.7356103178399L318.4104294330511 371.7356103178399Q325.8496421360667 371.7356103178399 332.36257154532154 374.54340655205203Q338.8755009545764 377.35120278626414 343.7674345997501 382.2141900785078Q348.63042189199376 387.10612372368143 351.43821812620587 393.6190531329363Q354.246014360418 400.1319825421912 354.246014360418 407.5711952452068L354.246014360418 407.5711952452068L354.246014360418 485.92897262677565ZM341.1043701301881 485.92897262677565L341.1043701301881 407.5711952452068Q341.1043701301881 402.67926160003316 339.2807498955967 398.45309407225Q337.4571296610054 394.2269265444668 334.301977191633 391.0717740750944Q331.14682472226065 387.91662160572207 326.9206571944775 386.0930013711307Q322.69448966669427 384.2693811365393 317.8025560215206 384.2693811365393L317.8025560215206 384.2693811365393L308.65550849563374 384.2693811365393Q303.7635748504601 384.2693811365393 299.5374073226769 386.0930013711307Q295.31123979489377 387.91662160572207 292.12714097259135 391.0717740750944Q288.9140957973589 394.2269265444668 287.09047556276755 398.45309407225Q285.23790897524617 402.67926160003316 285.23790897524617 407.5711952452068L285.23790897524617 407.5711952452068L285.23790897524617 485.92897262677565Q285.23790897524617 490.8209062719493 287.09047556276755 495.01812744680245Q288.9140957973589 499.2442949745856 292.12714097259135 502.45734014981804Q295.31123979489377 505.67038532505046 299.5374073226769 507.4940055596418Q303.7635748504601 509.3176257942332 308.65550849563374 509.3176257942332L308.65550849563374 509.3176257942332L317.8025560215206 509.3176257942332Q322.69448966669427 509.3176257942332 326.9206571944775 507.4940055596418Q331.14682472226065 505.67038532505046 334.301977191633 502.45734014981804Q337.4571296610054 499.2442949745856 339.2807498955967 495.01812744680245Q341.1043701301881 490.8209062719493 341.1043701301881 485.92897262677565L341.1043701301881 485.92897262677565ZM465.5736877292815 485.92897262677565L465.5736877292815 485.92897262677565Q465.5736877292815 493.3392389768612 462.7658914950694 499.8521683861161Q459.98704161378737 506.36509779537096 455.09510796861366 511.25703144054467Q450.20317432343995 516.1489650857184 443.6902449141851 518.9567613199304Q437.1773155049302 521.7356112012126 429.7381028019146 521.7356112012126L429.7381028019146 521.7356112012126L419.37530845296686 521.7356112012126Q411.9360957499513 521.7356112012126 405.36527363483634 518.9567613199304Q398.8233978726514 516.1489650857184 393.93146422747776 511.25703144054467Q389.0395305823041 506.36509779537096 386.260680701022 499.8521683861161Q383.4528844668099 493.3392389768612 383.4528844668099 485.92897262677565L383.4528844668099 485.92897262677565L383.4528844668099 407.5711952452068Q383.4528844668099 400.1319825421912 386.260680701022 393.6190531329363Q389.0395305823041 387.10612372368143 393.93146422747776 382.2141900785078Q398.8233978726514 377.35120278626414 405.36527363483634 374.54340655205203Q411.9360957499513 371.7356103178399 419.37530845296686 371.7356103178399L419.37530845296686 371.7356103178399L429.7381028019146 371.7356103178399Q437.1773155049302 371.7356103178399 443.6902449141851 374.54340655205203Q450.20317432343995 377.35120278626414 455.09510796861366 382.2141900785078Q459.98704161378737 387.10612372368143 462.7658914950694 393.6190531329363Q465.5736877292815 400.1319825421912 465.5736877292815 407.5711952452068L465.5736877292815 407.5711952452068L465.5736877292815 413.47625124293126L452.43204349905164 415.5024959480328L452.43204349905164 407.5711952452068Q452.43204349905164 402.67926160003316 450.60842326446027 398.45309407225Q448.78480302986895 394.2269265444668 445.62965056049654 391.0717740750944Q442.4744980911242 387.91662160572207 438.248330563341 386.0930013711307Q434.02216303555787 384.2693811365393 429.1302293903842 384.2693811365393L429.1302293903842 384.2693811365393L419.9831818644973 384.2693811365393Q415.09124821932363 384.2693811365393 410.86508069154047 386.0930013711307Q406.6389131637573 387.91662160572207 403.4548143414549 391.0717740750944Q400.24176916622247 394.2269265444668 398.4181489316311 398.45309407225Q396.56558234410977 402.67926160003316 396.56558234410977 407.5711952452068L396.56558234410977 407.5711952452068L396.56558234410977 485.92897262677565Q396.56558234410977 490.8209062719493 398.4181489316311 495.01812744680245Q400.24176916622247 499.2442949745856 403.4548143414549 502.45734014981804Q406.6389131637573 505.67038532505046 410.86508069154047 507.4940055596418Q415.09124821932363 509.3176257942332 419.9831818644973 509.3176257942332L419.9831818644973 509.3176257942332L429.1302293903842 509.3176257942332Q434.02216303555787 509.3176257942332 438.248330563341 507.4940055596418Q442.4744980911242 505.67038532505046 445.62965056049654 502.45734014981804Q448.78480302986895 499.2442949745856 450.60842326446027 495.01812744680245Q452.43204349905164 490.8209062719493 452.43204349905164 485.92897262677565L452.43204349905164 485.92897262677565L452.43204349905164 477.9976719239497L465.5736877292815 480.1107556878413L465.5736877292815 485.92897262677565ZM576.9013610981451 483.8737815687441L576.9013610981451 483.8737815687441Q576.9013610981451 491.3129942717597 574.093564863933 497.82592368101456Q571.3147149826509 504.3388530902695 566.4227813374772 509.23078673544313Q561.5308476923036 514.1227203806168 554.9600255771886 516.9015702618989Q548.4181498150037 519.709366496111 540.9789371119881 519.709366496111L540.9789371119881 519.709366496111L494.78055783567345 519.709366496111L494.78055783567345 373.79080137587147L540.9789371119881 373.79080137587147Q548.4181498150037 373.79080137587147 554.9600255771886 376.5696512571535Q561.5308476923036 379.3774474913657 566.4227813374772 384.2693811365393Q571.3147149826509 389.13236842878297 574.093564863933 395.7031905438979Q576.9013610981451 402.27401265901284 576.9013610981451 409.7132253620284L576.9013610981451 409.7132253620284L576.9013610981451 483.8737815687441ZM563.7886632208453 483.8737815687441L563.7886632208453 409.7132253620284Q563.7886632208453 404.8212917168548 561.9360966333238 400.5951241890716Q560.1124763987324 396.3689566612884 556.8994312235001 393.15591148605597Q553.6863860482677 389.9718126637536 549.4891648734144 388.11924607623223Q545.2629973456313 386.29562584164086 540.3710637004576 386.29562584164086L540.3710637004576 386.29562584164086L507.8932557129733 386.29562584164086L507.8932557129733 507.2045420303416L540.3710637004576 507.2045420303416Q545.2629973456313 507.2045420303416 549.4891648734144 505.3519754428202Q553.6863860482677 503.52835520822885 556.8994312235001 500.37320273885643Q560.1124763987324 497.21805026948414 561.9360966333238 492.9918827417009Q563.7886632208453 488.76571521391776 563.7886632208453 483.8737815687441L563.7886632208453 483.8737815687441Z " fill="#9932cc" transform="matrix(0.48478420555164864,0,0,0.48478420555164864,0,83.42964490935996)"/><path d="M739.4530114815534 462.03776433311157L739.4530114815534 462.03776433311157Q739.4530114815534 467.8976759331911 737.2326543518357 473.04798886294856Q735.012297222118 478.19830179270593 731.1667302345659 482.066759059946Q727.2982729673258 485.93521632718597 722.1479600375685 488.1555734569036Q716.997647107811 490.35304030693345 711.1148452280437 490.35304030693345L711.1148452280437 490.35304030693345L702.9201250998075 490.35304030693345Q697.0373232200401 490.35304030693345 691.8412297309071 488.1555734569036Q686.6680265214618 485.93521632718597 682.7995692542218 482.066759059946Q678.9311119869818 478.19830179270593 676.7107548572642 473.04798886294856Q674.5132880072343 467.8976759331911 674.5132880072343 462.03776433311157L674.5132880072343 462.03776433311157L674.5132880072343 400.07377721820797Q674.5132880072343 394.19097533844064 676.7107548572642 389.0406624086832Q678.9311119869818 383.8903494789258 682.7995692542218 380.0218922116858Q686.6680265214618 376.1763252241336 691.8412297309071 373.955968094416Q697.0373232200401 371.73561096469837 702.9201250998075 371.73561096469837L702.9201250998075 371.73561096469837L711.1148452280437 371.73561096469837Q716.997647107811 371.73561096469837 722.1479600375685 373.955968094416Q727.2982729673258 376.1763252241336 731.1667302345659 380.0218922116858Q735.012297222118 383.8903494789258 737.2326543518357 389.0406624086832Q739.4530114815534 394.19097533844064 739.4530114815534 400.07377721820797L739.4530114815534 400.07377721820797L739.4530114815534 462.03776433311157ZM729.0608245032872 462.03776433311157L729.0608245032872 400.07377721820797Q729.0608245032872 396.205319950968 727.6187368829552 392.86333911654765Q726.1766492626232 389.52135828212727 723.6816087766517 387.0263177961559Q721.1865682906804 384.5312773101845 717.8445874562601 383.08918968985245Q714.5026066218397 381.6471020695204 710.6341493545997 381.6471020695204L710.6341493545997 381.6471020695204L703.4008209732515 381.6471020695204Q699.5323637060114 381.6471020695204 696.190382871591 383.08918968985245Q692.8484020371707 384.5312773101845 690.3304712715116 387.0263177961559Q687.7896502261646 389.52135828212727 686.3475626058325 392.86333911654765Q684.8825847058126 396.205319950968 684.8825847058126 400.07377721820797L684.8825847058126 400.07377721820797L684.8825847058126 462.03776433311157Q684.8825847058126 465.9062216003516 686.3475626058325 469.22531215508417Q687.7896502261646 472.5672929895045 690.3304712715116 475.1081140348515Q692.8484020371707 477.6489350801985 696.190382871591 479.0910227005306Q699.5323637060114 480.53311032086265 703.4008209732515 480.53311032086265L703.4008209732515 480.53311032086265L710.6341493545997 480.53311032086265Q714.5026066218397 480.53311032086265 717.8445874562601 479.0910227005306Q721.1865682906804 477.6489350801985 723.6816087766517 475.1081140348515Q726.1766492626232 472.5672929895045 727.6187368829552 469.22531215508417Q729.0608245032872 465.9062216003516 729.0608245032872 462.03776433311157L729.0608245032872 462.03776433311157ZM812.6790162028598 488.7507207287867L757.627893553675 488.7507207287867L757.627893553675 484.3328967490392L799.1508609073636 415.7536188043583L759.2531034115095 415.7536188043583L759.2531034115095 406.34571385266815L812.6790162028598 406.34571385266815L812.6790162028598 410.7635378324156L771.1560488491712 479.34281577709646L812.6790162028598 479.34281577709646L812.6790162028598 488.7507207287867ZM880.9149399522236 488.7507207287867L825.8867075827267 488.7507207287867L825.8867075827267 484.3328967490392L867.4096749364152 415.7536188043583L827.4890271608733 415.7536188043583L827.4890271608733 406.34571385266815L880.9149399522236 406.34571385266815L880.9149399522236 410.7635378324156L839.391972598535 479.34281577709646L880.9149399522236 479.34281577709646L880.9149399522236 488.7507207287867ZM952.4699542563197 406.34571385266815L910.7867549448165 521.7356137589219L901.1957277556238 521.7356137589219L915.8455067558227 481.6776243052532L889.1325503601475 406.34571385266815L899.0211511852818 406.34571385266815L920.515123812136 468.79039684101576L920.8355877277654 473.04798886294856L921.1560516433948 468.79039684101576L942.5584631514978 406.34571385266815L952.4699542563197 406.34571385266815ZM1028.9234884136076 462.03776433311157L1028.9234884136076 462.03776433311157Q1028.9234884136076 467.8976759331911 1026.70313128389 473.04798886294856Q1024.4827741541721 478.19830179270593 1020.6143168869322 482.066759059946Q1016.7687498993802 485.93521632718597 1011.6184369696227 488.1555734569036Q1006.4681240398653 490.35304030693345 1000.5853221600979 490.35304030693345L1000.5853221600979 490.35304030693345L992.3677117521739 490.35304030693345Q986.5078001520944 490.35304030693345 981.3117066629613 488.1555734569036Q976.1156131738284 485.93521632718597 972.2700461862761 482.066759059946Q968.401588919036 478.19830179270593 966.1812317893184 473.04798886294856Q963.9608746596008 467.8976759331911 963.9608746596008 462.03776433311157L963.9608746596008 462.03776433311157L963.9608746596008 400.07377721820797Q963.9608746596008 394.19097533844064 966.1812317893184 389.0406624086832Q968.401588919036 383.8903494789258 972.2700461862761 380.0218922116858Q976.1156131738284 376.1763252241336 981.3117066629613 373.955968094416Q986.5078001520944 371.73561096469837 992.3677117521739 371.73561096469837L992.3677117521739 371.73561096469837L1000.5853221600979 371.73561096469837Q1006.4681240398653 371.73561096469837 1011.6184369696227 373.955968094416Q1016.7687498993802 376.1763252241336 1020.6143168869322 380.0218922116858Q1024.4827741541721 383.8903494789258 1026.70313128389 389.0406624086832Q1028.9234884136076 394.19097533844064 1028.9234884136076 400.07377721820797L1028.9234884136076 400.07377721820797L1028.9234884136076 404.7433942745214L1018.5313014353416 406.34571385266815L1018.5313014353416 400.07377721820797Q1018.5313014353416 396.205319950968 1017.0892138150094 392.86333911654765Q1015.6242359149895 389.52135828212727 1013.1291954290183 387.0263177961559Q1010.6570452227346 384.5312773101845 1007.3150643883142 383.08918968985245Q1003.973083553894 381.6471020695204 1000.104626286654 381.6471020695204L1000.104626286654 381.6471020695204L992.8712979053058 381.6471020695204Q989.0028406380658 381.6471020695204 985.6608598036454 383.08918968985245Q982.318878969225 384.5312773101845 979.778057923878 387.0263177961559Q977.2601271582188 389.52135828212727 975.7951492581989 392.86333911654765Q974.353061637867 396.205319950968 974.353061637867 400.07377721820797L974.353061637867 400.07377721820797L974.353061637867 462.03776433311157Q974.353061637867 465.9062216003516 975.7951492581989 469.22531215508417Q977.2601271582188 472.5672929895045 979.778057923878 475.1081140348515Q982.318878969225 477.6489350801985 985.6608598036454 479.0910227005306Q989.0028406380658 480.53311032086265 992.8712979053058 480.53311032086265L992.8712979053058 480.53311032086265L1000.104626286654 480.53311032086265Q1003.973083553894 480.53311032086265 1007.3150643883142 479.0910227005306Q1010.6570452227346 477.6489350801985 1013.1291954290183 475.1081140348515Q1015.6242359149895 472.5672929895045 1017.0892138150094 469.22531215508417Q1018.5313014353416 465.9062216003516 1018.5313014353416 462.03776433311157L1018.5313014353416 462.03776433311157L1018.5313014353416 455.7658276986515L1028.9234884136076 457.4368181158616L1028.9234884136076 462.03776433311157ZM1103.7518127130609 466.1351243972297L1103.7518127130609 466.1351243972297Q1103.7518127130609 471.1252053691724 1101.8519194989726 475.5430293489199Q1099.9749165645721 479.9837436083552 1096.6787162895273 483.27994388339994Q1093.3825160144825 486.57614415844466 1088.9418017550474 488.47603737253297Q1084.5239777753 490.35304030693345 1079.533896803357 490.35304030693345L1079.533896803357 490.35304030693345L1072.9414962532678 490.35304030693345Q1067.951415281325 490.35304030693345 1063.5107010218896 488.47603737253297Q1059.092877042142 486.57614415844466 1055.7966767670973 483.27994388339994Q1052.5004764920527 479.9837436083552 1050.6005832779642 475.5430293489199Q1048.7006900638762 471.1252053691724 1048.7006900638762 466.1351243972297L1048.7006900638762 466.1351243972297L1048.7006900638762 428.9613101842251Q1048.7006900638762 423.97122921228237 1050.6005832779642 419.5534052325349Q1052.5004764920527 415.11269097309963 1055.7966767670973 411.8164906980549Q1059.092877042142 408.5202904230101 1063.5107010218896 406.6203972089219Q1067.951415281325 404.7433942745214 1072.9414962532678 404.7433942745214L1072.9414962532678 404.7433942745214L1079.533896803357 404.7433942745214Q1084.5239777753 404.7433942745214 1088.9418017550474 406.6203972089219Q1093.3825160144825 408.5202904230101 1096.6787162895273 411.8164906980549Q1099.9749165645721 415.11269097309963 1101.8519194989726 419.5534052325349Q1103.7518127130609 423.97122921228237 1103.7518127130609 428.9613101842251L1103.7518127130609 428.9613101842251L1103.7518127130609 466.1351243972297ZM1093.8632118879266 466.707381389425L1093.8632118879266 428.38905319202985Q1093.8632118879266 425.41331683261444 1092.718697903536 422.803824948204Q1091.5970741988335 420.1943330637936 1089.674290705057 418.24865929032967Q1087.7286169315935 416.3258757965536 1085.119125047183 415.2042520918509Q1082.5096331627724 414.0597381074603 1079.533896803357 414.0597381074603L1079.533896803357 414.0597381074603L1072.9414962532678 414.0597381074603Q1069.9657598938522 414.0597381074603 1067.333377729754 415.2042520918509Q1064.7238858453434 416.3258757965536 1062.8011023515674 418.24865929032967Q1060.8554285781036 420.1943330637936 1059.733804873401 422.803824948204Q1058.612181168698 425.41331683261444 1058.612181168698 428.38905319202985L1058.612181168698 428.38905319202985L1058.612181168698 466.707381389425Q1058.612181168698 469.68311774884035 1059.733804873401 472.2926096332508Q1060.8554285781036 474.9021015176612 1062.8011023515674 476.8477752911251Q1064.7238858453434 478.7705587849012 1067.333377729754 479.89218248960395Q1069.9657598938522 481.01380619430665 1072.9414962532678 481.01380619430665L1072.9414962532678 481.01380619430665L1079.533896803357 481.01380619430665Q1082.5096331627724 481.01380619430665 1085.119125047183 479.89218248960395Q1087.7286169315935 478.7705587849012 1089.674290705057 476.8477752911251Q1091.5970741988335 474.9021015176612 1092.718697903536 472.2926096332508Q1093.8632118879266 469.68311774884035 1093.8632118879266 466.707381389425L1093.8632118879266 466.707381389425ZM1178.6030272922017 488.7507207287867L1175.2839367374695 488.7507207287867L1169.8131598920827 480.372878363048Q1166.4482887779745 484.9738245802979 1161.3666466872805 487.6748775834596Q1156.307894876274 490.35304030693345 1150.2648610386923 490.35304030693345L1150.2648610386923 490.35304030693345L1147.7698205527208 490.35304030693345Q1142.779739580778 490.35304030693345 1138.3619156010304 488.47603737253297Q1133.9212013415954 486.57614415844466 1130.6250010665508 483.27994388339994Q1127.3288007915057 479.9837436083552 1125.4517978571052 475.5430293489199Q1123.5519046430172 471.1252053691724 1123.5519046430172 466.1351243972297L1123.5519046430172 466.1351243972297L1123.5519046430172 428.9613101842251Q1123.5519046430172 423.97122921228237 1125.4517978571052 419.5534052325349Q1127.3288007915057 415.11269097309963 1130.6250010665508 411.8164906980549Q1133.9212013415954 408.5202904230101 1138.3619156010304 406.6203972089219Q1142.779739580778 404.7433942745214 1147.7698205527208 404.7433942745214L1147.7698205527208 404.7433942745214L1150.2648610386923 404.7433942745214Q1155.8271990028302 404.7433942745214 1160.565486898207 406.98664168392685Q1165.3266650732717 409.2527793730201 1168.6915361873798 413.258578318387L1168.6915361873798 413.258578318387L1168.6915361873798 373.3608208225329L1178.6030272922017 373.3608208225329L1178.6030272922017 488.7507207287867ZM1168.6915361873798 466.707381389425L1168.6915361873798 428.38905319202985Q1168.6915361873798 425.41331683261444 1167.569912482677 422.803824948204Q1166.4482887779745 420.1943330637936 1164.5026150045105 418.24865929032967Q1162.5798315107345 416.3258757965536 1159.970339626324 415.2042520918509Q1157.3379574622259 414.0597381074603 1154.3622211028105 414.0597381074603L1154.3622211028105 414.0597381074603L1147.7698205527208 414.0597381074603Q1144.7940841933055 414.0597381074603 1142.184592308895 415.2042520918509Q1139.5751004244844 416.3258757965536 1137.6294266510208 418.24865929032967Q1135.7066431572446 420.1943330637936 1134.585019452542 422.803824948204Q1133.4405054681515 425.41331683261444 1133.4405054681515 428.38905319202985L1133.4405054681515 428.38905319202985L1133.4405054681515 466.707381389425Q1133.4405054681515 469.68311774884035 1134.585019452542 472.2926096332508Q1135.7066431572446 474.9021015176612 1137.6294266510208 476.8477752911251Q1139.5751004244844 478.7705587849012 1142.184592308895 479.89218248960395Q1144.7940841933055 481.01380619430665 1147.7698205527208 481.01380619430665L1147.7698205527208 481.01380619430665L1154.3622211028105 481.01380619430665Q1157.3379574622259 481.01380619430665 1159.970339626324 479.89218248960395Q1162.5798315107345 478.7705587849012 1164.5026150045105 476.8477752911251Q1166.4482887779745 474.9021015176612 1167.569912482677 472.2926096332508Q1168.6915361873798 469.68311774884035 1168.6915361873798 466.707381389425L1168.6915361873798 466.707381389425ZM1253.4313515916551 466.1351243972297L1253.4313515916551 466.1351243972297Q1253.4313515916551 471.1252053691724 1251.5543486572546 475.5430293489199Q1249.6544554431662 479.9837436083552 1246.3582551681216 483.27994388339994Q1243.062054893077 486.57614415844466 1238.6213406336415 488.47603737253297Q1234.203516653894 490.35304030693345 1229.2134356819515 490.35304030693345L1229.2134356819515 490.35304030693345L1222.6210351318618 490.35304030693345Q1217.6309541599192 490.35304030693345 1213.190239900484 488.47603737253297Q1208.7724159207364 486.57614415844466 1205.4762156456918 483.27994388339994Q1202.1800153706467 479.9837436083552 1200.2801221565587 475.5430293489199Q1198.3802289424702 471.1252053691724 1198.3802289424702 466.1351243972297L1198.3802289424702 466.1351243972297L1198.3802289424702 428.9613101842251Q1198.3802289424702 423.97122921228237 1200.2801221565587 419.5534052325349Q1202.1800153706467 415.11269097309963 1205.4762156456918 411.8164906980549Q1208.7724159207364 408.5202904230101 1213.190239900484 406.6203972089219Q1217.6309541599192 404.7433942745214 1222.6210351318618 404.7433942745214L1222.6210351318618 404.7433942745214L1229.2134356819515 404.7433942745214Q1234.203516653894 404.7433942745214 1238.6213406336415 406.6203972089219Q1243.062054893077 408.5202904230101 1246.3582551681216 411.8164906980549Q1249.6544554431662 415.11269097309963 1251.5543486572546 419.5534052325349Q1253.4313515916551 423.97122921228237 1253.4313515916551 428.9613101842251L1253.4313515916551 428.9613101842251L1253.4313515916551 448.3493770798008L1208.2917200472925 448.3493770798008L1208.2917200472925 466.707381389425Q1208.2917200472925 469.68311774884035 1209.4133437519952 472.2926096332508Q1210.5349674566978 474.9021015176612 1212.4806412301618 476.8477752911251Q1214.4034247239379 478.7705587849012 1217.0129166083482 479.89218248960395Q1219.6452987724465 481.01380619430665 1222.6210351318618 481.01380619430665L1222.6210351318618 481.01380619430665L1229.2134356819515 481.01380619430665Q1232.1891720413669 481.01380619430665 1234.7986639257772 479.89218248960395Q1237.4310460898755 478.7705587849012 1239.3538295836515 476.8477752911251Q1241.2766130774276 474.9021015176612 1242.421127061818 472.2926096332508Q1243.5427507665208 469.68311774884035 1243.5427507665208 466.707381389425L1243.5427507665208 466.707381389425L1243.5427507665208 461.23660454403824L1253.4313515916551 462.83892412218495L1253.4313515916551 466.1351243972297ZM1243.5427507665208 440.63535282500857L1243.5427507665208 428.38905319202985Q1243.5427507665208 425.41331683261444 1242.421127061818 422.803824948204Q1241.2766130774276 420.1943330637936 1239.3538295836515 418.24865929032967Q1237.4310460898755 416.3258757965536 1234.7986639257772 415.2042520918509Q1232.1891720413669 414.0597381074603 1229.2134356819515 414.0597381074603L1229.2134356819515 414.0597381074603L1222.6210351318618 414.0597381074603Q1219.6452987724465 414.0597381074603 1217.0129166083482 415.2042520918509Q1214.4034247239379 416.3258757965536 1212.4806412301618 418.24865929032967Q1210.5349674566978 420.1943330637936 1209.4133437519952 422.803824948204Q1208.2917200472925 425.41331683261444 1208.2917200472925 428.38905319202985L1208.2917200472925 428.38905319202985L1208.2917200472925 440.63535282500857L1243.5427507665208 440.63535282500857ZM1329.884885748943 467.8290050941277L1329.884885748943 467.8290050941277Q1329.884885748943 472.81908606607044 1327.8705411364153 476.9622266895642Q1325.8561965238882 481.1053673130579 1322.3997642910285 484.0811036724733Q1318.9433320581693 487.05684003188867 1314.3881664002952 488.70494016941103Q1309.8558910221086 490.35304030693345 1304.8658100501657 490.35304030693345L1304.8658100501657 490.35304030693345L1298.2505192203885 490.35304030693345Q1293.2604382484456 490.35304030693345 1288.7281628702594 488.47603737253297Q1284.1729972123849 486.57614415844466 1280.7623455389012 483.27994388339994Q1277.3288035857295 479.9837436083552 1275.2915686935144 475.5430293489199Q1273.2314435216113 471.1252053691724 1273.2314435216113 466.1351243972297L1273.2314435216113 466.1351243972297L1273.2314435216113 462.83892412218495L1283.1200443467455 461.23660454403824L1283.1200443467455 466.707381389425Q1283.1200443467455 469.68311774884035 1284.379009729575 472.2926096332508Q1285.615084832717 474.9021015176612 1287.7209905639957 476.8477752911251Q1289.8040060155863 478.7705587849012 1292.5508395781235 479.89218248960395Q1295.2747828609731 481.01380619430665 1298.2505192203885 481.01380619430665L1298.2505192203885 481.01380619430665L1304.8658100501657 481.01380619430665Q1307.841546409581 481.01380619430665 1310.5654896924307 480.14397556616984Q1313.3123232549679 479.25125465834526 1315.441119265934 477.60315452082284Q1317.5699152769007 475.9550543833005 1318.8288806597302 473.6202458551438Q1320.0649557628722 471.2854373269871 1320.0649557628722 468.30970096757176L1320.0649557628722 468.30970096757176Q1320.0649557628722 463.8918769878243 1318.1421722690961 461.07637258622356Q1316.196498495632 458.26086818462284 1313.0147496190266 456.3609749705345Q1309.8558910221086 454.4610817564462 1305.7814212376784 453.2250066533045Q1301.7298417329357 451.9660412704749 1297.4493594313153 450.7299661673331Q1293.1917674093825 449.47100078450353 1289.1172976249518 447.86868120635677Q1285.0657181202096 446.26636162821 1281.883969243604 443.6339794641118Q1278.702220366998 441.0244875797014 1276.779436873222 437.0873594733979Q1274.8337630997582 433.1502313670945 1274.8337630997582 427.2674294873271L1274.8337630997582 427.2674294873271Q1274.8337630997582 422.2773485153844 1276.779436873222 418.13420789189064Q1278.702220366998 413.99106726839693 1281.9984206420431 411.0153309089815Q1285.2946209170877 408.0395945495661 1289.6895546171472 406.39149441204376Q1294.0844883172072 404.7433942745214 1299.0745692891496 404.7433942745214L1299.0745692891496 404.7433942745214L1304.8658100501657 404.7433942745214Q1309.8558910221086 404.7433942745214 1314.273715001856 406.6203972089219Q1318.6915389816036 408.5202904230101 1321.9877392566482 411.8164906980549Q1325.3068298113808 415.11269097309963 1327.1838327457813 419.5534052325349Q1329.0837259598698 423.97122921228237 1329.0837259598698 428.9613101842251L1329.0837259598698 428.9613101842251L1329.0837259598698 429.2817740998545L1319.1722348550475 430.8840936780012L1319.1722348550475 428.38905319202985Q1319.1722348550475 425.41331683261444 1318.0506111503446 422.803824948204Q1316.9289874456422 420.1943330637936 1315.0062039518657 418.24865929032967Q1313.0605301784021 416.3258757965536 1310.4510382939916 415.2042520918509Q1307.841546409581 414.0597381074603 1304.8658100501657 414.0597381074603L1304.8658100501657 414.0597381074603L1299.0745692891496 414.0597381074603Q1296.0759426500463 414.0597381074603 1293.4664507656362 414.95245901528494Q1290.8569588812256 415.8451799231096 1288.9341753874496 417.49328006063195Q1286.9885016139856 419.1413801981543 1285.8668779092832 421.476188726311Q1284.7452542045803 423.8109972544677 1284.7452542045803 426.7867336138831L1284.7452542045803 426.7867336138831Q1284.7452542045803 431.0443256358159 1286.6680376983563 433.74537863897757Q1288.5908211921324 436.4464316421392 1291.7725700687383 438.30054429685185Q1294.9543189453439 440.15465695156456 1299.028788729774 441.3907320547063Q1303.0803682345168 442.6496974375359 1307.3150699767616 443.97733365942895Q1311.526881439319 445.30496988132194 1315.6013512237491 446.97596029853213Q1319.6758210081794 448.66984099543015 1322.8346796050973 451.3251134392162Q1326.0164284817029 453.9803858830022 1327.9621022551669 457.9632945486813Q1329.884885748943 461.94620321436037 1329.884885748943 467.8290050941277ZM1455.026044802204 460.41255447527703L1455.026044802204 460.41255447527703Q1455.026044802204 466.29535635504436 1452.8056876724863 471.4456692848018Q1450.585330542769 476.59598221455917 1446.7397635552165 480.4644394817992Q1442.8713062879765 484.3328967490392 1437.6752127988439 486.53036359906906Q1432.4791193097108 488.7507207287867 1426.6192077096312 488.7507207287867L1426.6192077096312 488.7507207287867L1390.086321327885 488.7507207287867L1390.086321327885 373.3608208225329L1426.6192077096312 373.3608208225329Q1432.4791193097108 373.3608208225329 1437.6752127988439 375.5582876725627Q1442.8713062879765 377.7786448022804 1446.7397635552165 381.6471020695204Q1450.585330542769 385.4926690570726 1452.8056876724863 390.68876254620557Q1455.026044802204 395.88485603533866 1455.026044802204 401.767657915106L1455.026044802204 401.767657915106L1455.026044802204 460.41255447527703ZM1444.6338578239383 460.41255447527703L1444.6338578239383 401.767657915106Q1444.6338578239383 397.899200647866 1443.1917702036058 394.5572198134456Q1441.749682583274 391.21523897902523 1439.208861537927 388.6744179336782Q1436.66804049258 386.1564871680191 1433.3260596581595 384.6915092679992Q1429.9840788237393 383.2494216476671 1426.1385118361868 383.2494216476671L1426.1385118361868 383.2494216476671L1400.4556180264635 383.2494216476671L1400.4556180264635 478.86211990365246L1426.1385118361868 478.86211990365246Q1429.9840788237393 478.86211990365246 1433.3260596581595 477.39714200363255Q1436.66804049258 475.9550543833005 1439.208861537927 473.46001389732913Q1441.749682583274 470.9649734113578 1443.1917702036058 467.6229925769374Q1444.6338578239383 464.281011742517 1444.6338578239383 460.41255447527703L1444.6338578239383 460.41255447527703ZM1510.5578633248329 415.7536188043583L1500.646372220011 415.7536188043583Q1497.6706358605952 415.7536188043583 1495.0611439761851 416.89813278874885Q1492.4516520917746 418.0197564934516 1490.5059783183106 419.9425399872277Q1488.5831948245345 421.8882137606916 1487.4615711198321 424.49770564510203Q1486.3170571354412 427.10719752951246 1486.3170571354412 430.0829338889278L1486.3170571354412 430.0829338889278L1486.3170571354412 488.7507207287867L1476.4284563103074 488.7507207287867L1476.4284563103074 406.34571385266815L1479.724656585352 406.34571385266815L1485.1267625916753 414.7235562184068Q1488.4916337057834 410.1226100011569 1493.619056355853 407.42155699799525Q1498.723588726235 404.7433942745214 1504.7437322841288 404.7433942745214L1504.7437322841288 404.7433942745214L1510.5578633248329 404.7433942745214L1510.5578633248329 415.7536188043583ZM1578.7937870741966 466.1351243972297L1578.7937870741966 466.1351243972297Q1578.7937870741966 471.1252053691724 1576.8938938601082 475.5430293489199Q1575.0168909257077 479.9837436083552 1571.697800370975 483.27994388339994Q1568.4016000959305 486.57614415844466 1563.983776116183 488.47603737253297Q1559.5659521364355 490.35304030693345 1554.575871164493 490.35304030693345L1554.575871164493 490.35304030693345L1547.9605803347158 490.35304030693345Q1542.970499362773 490.35304030693345 1538.5526753830254 488.47603737253297Q1534.134851403278 486.57614415844466 1530.8386511282333 483.27994388339994Q1527.5195605735007 479.9837436083552 1525.6425576391002 475.5430293489199Q1523.7426644250118 471.1252053691724 1523.7426644250118 466.1351243972297L1523.7426644250118 466.1351243972297L1523.7426644250118 428.9613101842251Q1523.7426644250118 423.97122921228237 1525.6425576391002 419.5534052325349Q1527.5195605735007 415.11269097309963 1530.8386511282333 411.8164906980549Q1534.134851403278 408.5202904230101 1538.5526753830254 406.6203972089219Q1542.970499362773 404.7433942745214 1547.9605803347158 404.7433942745214L1547.9605803347158 404.7433942745214L1554.575871164493 404.7433942745214Q1559.5659521364355 404.7433942745214 1563.983776116183 406.6203972089219Q1568.4016000959305 408.5202904230101 1571.697800370975 411.8164906980549Q1575.0168909257077 415.11269097309963 1576.8938938601082 419.5534052325349Q1578.7937870741966 423.97122921228237 1578.7937870741966 428.9613101842251L1578.7937870741966 428.9613101842251L1578.7937870741966 466.1351243972297ZM1568.8822959693748 466.707381389425L1568.8822959693748 428.38905319202985Q1568.8822959693748 425.41331683261444 1567.760672264672 422.803824948204Q1566.639048559969 420.1943330637936 1564.716265066193 418.24865929032967Q1562.770591292729 416.3258757965536 1560.1610994083185 415.2042520918509Q1557.5516075239084 414.0597381074603 1554.575871164493 414.0597381074603L1554.575871164493 414.0597381074603L1547.9605803347158 414.0597381074603Q1544.9848439753005 414.0597381074603 1542.37535209089 415.2042520918509Q1539.7658602064794 416.3258757965536 1537.8201864330154 418.24865929032967Q1535.8974029392393 420.1943330637936 1534.7757792345365 422.803824948204Q1533.654155529834 425.41331683261444 1533.654155529834 428.38905319202985L1533.654155529834 428.38905319202985L1533.654155529834 466.707381389425Q1533.654155529834 469.68311774884035 1534.7757792345365 472.2926096332508Q1535.8974029392393 474.9021015176612 1537.8201864330154 476.8477752911251Q1539.7658602064794 478.7705587849012 1542.37535209089 479.89218248960395Q1544.9848439753005 481.01380619430665 1547.9605803347158 481.01380619430665L1547.9605803347158 481.01380619430665L1554.575871164493 481.01380619430665Q1557.5516075239084 481.01380619430665 1560.1610994083185 479.89218248960395Q1562.770591292729 478.7705587849012 1564.716265066193 476.8477752911251Q1566.639048559969 474.9021015176612 1567.760672264672 472.2926096332508Q1568.8822959693748 469.68311774884035 1568.8822959693748 466.707381389425L1568.8822959693748 466.707381389425ZM1653.6221113736497 488.7507207287867L1643.7335105485154 488.7507207287867L1643.7335105485154 428.38905319202985Q1643.7335105485154 425.41331683261444 1642.611886843813 422.803824948204Q1641.4673728594225 420.1943330637936 1639.544589365646 418.24865929032967Q1637.62180587187 416.3258757965536 1634.989423707772 415.2042520918509Q1632.3799318233614 414.0597381074603 1629.404195463946 414.0597381074603L1629.404195463946 414.0597381074603L1622.8117949138568 414.0597381074603Q1619.836058554441 414.0597381074603 1617.226566670031 415.2042520918509Q1614.5941845059328 416.3258757965536 1612.6714010121564 418.24865929032967Q1610.7486175183803 420.1943330637936 1609.60410353399 422.803824948204Q1608.482479829287 425.41331683261444 1608.482479829287 428.38905319202985L1608.482479829287 428.38905319202985L1608.482479829287 488.7507207287867L1598.5938790041528 488.7507207287867L1598.5938790041528 406.34571385266815L1601.8900792791978 406.34571385266815L1607.269295005833 414.7235562184068Q1610.6570563996293 410.1226100011569 1615.7615887700108 407.42155699799525Q1620.8661211403928 404.7433942745214 1626.9091549779746 404.7433942745214L1626.9091549779746 404.7433942745214L1629.404195463946 404.7433942745214Q1634.394276435889 404.7433942745214 1638.8121004156365 406.6203972089219Q1643.2528146750715 408.5202904230101 1646.5490149501165 411.8164906980549Q1649.8452152251612 415.11269097309963 1651.7451084392492 419.5534052325349Q1653.6221113736497 423.97122921228237 1653.6221113736497 428.9613101842251L1653.6221113736497 428.9613101842251L1653.6221113736497 488.7507207287867ZM1728.4733259527911 466.1351243972297L1728.4733259527911 466.1351243972297Q1728.4733259527911 471.1252053691724 1726.5734327387026 475.5430293489199Q1724.6964298043022 479.9837436083552 1721.4002295292576 483.27994388339994Q1718.081138974525 486.57614415844466 1713.6633149947775 488.47603737253297Q1709.24549101503 490.35304030693345 1704.255410043087 490.35304030693345L1704.255410043087 490.35304030693345L1697.6401192133098 490.35304030693345Q1692.650038241367 490.35304030693345 1688.2322142616194 488.47603737253297Q1683.814390281872 486.57614415844466 1680.5181900068274 483.27994388339994Q1677.1990994520947 479.9837436083552 1675.3220965176943 475.5430293489199Q1673.4222033036062 471.1252053691724 1673.4222033036062 466.1351243972297L1673.4222033036062 466.1351243972297L1673.4222033036062 428.9613101842251Q1673.4222033036062 423.97122921228237 1675.3220965176943 419.5534052325349Q1677.1990994520947 415.11269097309963 1680.5181900068274 411.8164906980549Q1683.814390281872 408.5202904230101 1688.2322142616194 406.6203972089219Q1692.650038241367 404.7433942745214 1697.6401192133098 404.7433942745214L1697.6401192133098 404.7433942745214L1704.255410043087 404.7433942745214Q1709.24549101503 404.7433942745214 1713.6633149947775 406.6203972089219Q1718.081138974525 408.5202904230101 1721.4002295292576 411.8164906980549Q1724.6964298043022 415.11269097309963 1726.5734327387026 419.5534052325349Q1728.4733259527911 423.97122921228237 1728.4733259527911 428.9613101842251L1728.4733259527911 428.9613101842251L1728.4733259527911 448.3493770798008L1683.333694408428 448.3493770798008L1683.333694408428 466.707381389425Q1683.333694408428 469.68311774884035 1684.455318113131 472.2926096332508Q1685.5769418178338 474.9021015176612 1687.4997253116098 476.8477752911251Q1689.4453990850734 478.7705587849012 1692.054890969484 479.89218248960395Q1694.6643828538945 481.01380619430665 1697.6401192133098 481.01380619430665L1697.6401192133098 481.01380619430665L1704.255410043087 481.01380619430665Q1707.2311464025024 481.01380619430665 1709.840638286913 479.89218248960395Q1712.4501301713235 478.7705587849012 1714.3958039447875 476.8477752911251Q1716.3185874385636 474.9021015176612 1717.440211143266 472.2926096332508Q1718.5618348479688 469.68311774884035 1718.5618348479688 466.707381389425L1718.5618348479688 466.707381389425L1718.5618348479688 461.23660454403824L1728.4733259527911 462.83892412218495L1728.4733259527911 466.1351243972297ZM1718.5618348479688 440.63535282500857L1718.5618348479688 428.38905319202985Q1718.5618348479688 425.41331683261444 1717.440211143266 422.803824948204Q1716.3185874385636 420.1943330637936 1714.3958039447875 418.24865929032967Q1712.4501301713235 416.3258757965536 1709.840638286913 415.2042520918509Q1707.2311464025024 414.0597381074603 1704.255410043087 414.0597381074603L1704.255410043087 414.0597381074603L1697.6401192133098 414.0597381074603Q1694.6643828538945 414.0597381074603 1692.054890969484 415.2042520918509Q1689.4453990850734 416.3258757965536 1687.4997253116098 418.24865929032967Q1685.5769418178338 420.1943330637936 1684.455318113131 422.803824948204Q1683.333694408428 425.41331683261444 1683.333694408428 428.38905319202985L1683.333694408428 428.38905319202985L1683.333694408428 440.63535282500857L1718.5618348479688 440.63535282500857ZM1804.926860110079 467.8290050941277L1804.926860110079 467.8290050941277Q1804.926860110079 472.81908606607044 1802.9125154975513 476.9622266895642Q1800.8981708850242 481.1053673130579 1797.4417386521645 484.0811036724733Q1793.9853064193053 487.05684003188867 1789.4301407614307 488.70494016941103Q1784.8749751035566 490.35304030693345 1779.8848941316137 490.35304030693345L1779.8848941316137 490.35304030693345L1773.2924935815245 490.35304030693345Q1768.3024126095816 490.35304030693345 1763.7472469517074 488.47603737253297Q1759.2149715735209 486.57614415844466 1755.7814296203492 483.27994388339994Q1752.3707779468655 479.9837436083552 1750.3106527749624 475.5430293489199Q1748.2734178827473 471.1252053691724 1748.2734178827473 466.1351243972297L1748.2734178827473 466.1351243972297L1748.2734178827473 462.83892412218495L1758.1620187078815 461.23660454403824L1758.1620187078815 466.707381389425Q1758.1620187078815 469.68311774884035 1759.420984090711 472.2926096332508Q1760.6570591938525 474.9021015176612 1762.7629649251312 476.8477752911251Q1764.8459803767219 478.7705587849012 1767.5699236595715 479.89218248960395Q1770.3167572221091 481.01380619430665 1773.2924935815245 481.01380619430665L1773.2924935815245 481.01380619430665L1779.8848941316137 481.01380619430665Q1782.860630491029 481.01380619430665 1785.6074640535662 480.14397556616984Q1788.3542976161038 479.25125465834526 1790.48309362707 477.60315452082284Q1792.6118896380367 475.9550543833005 1793.8479647411782 473.6202458551438Q1795.1069301240082 471.2854373269871 1795.1069301240082 468.30970096757176L1795.1069301240082 468.30970096757176Q1795.1069301240082 463.8918769878243 1793.1612563505441 461.07637258622356Q1791.2384728567677 458.26086818462284 1788.0567239801621 456.3609749705345Q1784.8749751035566 454.4610817564462 1780.823395598814 453.2250066533045Q1776.7489258143837 451.9660412704749 1772.4913337924509 450.7299661673331Q1768.233741770518 449.47100078450353 1764.1592719860878 447.86868120635677Q1760.1076924813456 446.26636162821 1756.9259436047396 443.6339794641118Q1753.744194728134 441.0244875797014 1751.79852095467 437.0873594733979Q1749.875737460894 433.1502313670945 1749.875737460894 427.2674294873271L1749.875737460894 427.2674294873271Q1749.875737460894 422.2773485153844 1751.79852095467 418.13420789189064Q1753.744194728134 413.99106726839693 1757.0403950031787 411.0153309089815Q1760.3365952782233 408.0395945495661 1764.7315289782832 406.39149441204376Q1769.1035723986552 404.7433942745214 1774.0936533705976 404.7433942745214L1774.0936533705976 404.7433942745214L1779.8848941316137 404.7433942745214Q1784.8749751035566 404.7433942745214 1789.3156893629916 406.6203972089219Q1793.7335133427391 408.5202904230101 1797.0297136177842 411.8164906980549Q1800.3259138928288 415.11269097309963 1802.2258071069173 419.5534052325349Q1804.1257003210053 423.97122921228237 1804.1257003210053 428.9613101842251L1804.1257003210053 428.9613101842251L1804.1257003210053 429.2817740998545L1794.2142092161835 430.8840936780012L1794.2142092161835 428.38905319202985Q1794.2142092161835 425.41331683261444 1793.0925855114806 422.803824948204Q1791.9709618067777 420.1943330637936 1790.0252880333137 418.24865929032967Q1788.1025045395377 416.3258757965536 1785.4930126551276 415.2042520918509Q1782.860630491029 414.0597381074603 1779.8848941316137 414.0597381074603L1779.8848941316137 414.0597381074603L1774.0936533705976 414.0597381074603Q1771.1179170111823 414.0597381074603 1768.5084251267717 414.95245901528494Q1765.8989332423616 415.8451799231096 1763.9532594688976 417.49328006063195Q1762.0304759751216 419.1413801981543 1760.9088522704187 421.476188726311Q1759.7643382860283 423.8109972544677 1759.7643382860283 426.7867336138831L1759.7643382860283 426.7867336138831Q1759.7643382860283 431.0443256358159 1761.7100120594919 433.74537863897757Q1763.632795553268 436.4464316421392 1766.8145444298739 438.30054429685185Q1769.9962933064799 440.15465695156456 1774.047872811222 441.3907320547063Q1778.1223425956523 442.6496974375359 1782.3570443378972 443.97733365942895Q1786.5688558004545 445.30496988132194 1790.6433255848847 446.97596029853213Q1794.6949050896274 448.66984099543015 1797.8766539662333 451.3251134392162Q1801.0584028428389 453.9803858830022 1802.9811863366149 457.9632945486813Q1804.926860110079 461.94620321436037 1804.926860110079 467.8290050941277Z " fill="#292826" transform="matrix(0.48478420555164864,0,0,0.48478420555164864,0,83.42964490935996)"/></g></svg>